<?xml version="1.0" standalone="no"?>
<!DOCTYPE svg PUBLIC "-//W3C//DTD SVG 20010904//EN"
 "http://www.w3.org/TR/2001/REC-SVG-20010904/DTD/svg10.dtd">
<svg version="1.0" xmlns="http://www.w3.org/2000/svg"
 width="1024.000000pt" height="1024.000000pt" viewBox="0 0 1024.000000 1024.000000"
 preserveAspectRatio="xMidYMid meet">
<metadata>
Created by potrace 1.14, written by Peter Selinger 2001-2017
</metadata>
<g transform="translate(0.000000,1024.000000) scale(0.100000,-0.100000)"
fill="#000000" stroke="none">
<path d="M0 5120 l0 -5120 5120 0 5120 0 0 5120 0 5120 -5120 0 -5120 0 0
-5120z m1680 565 l0 -255 -120 0 -119 0 -3 118 -3 117 -117 3 -118 3 0 -541 0
-540 90 0 90 0 0 -130 0 -130 -330 0 -330 0 0 130 0 130 85 0 85 0 0 540 0
540 -115 0 -115 0 0 -120 0 -120 -120 0 -120 0 0 255 0 255 630 0 630 0 0
-255z m900 -305 c118 -308 217 -560 220 -560 3 0 102 252 220 560 l215 560
303 0 302 0 0 -130 0 -130 -85 0 -85 0 0 -545 0 -545 85 0 85 0 0 -130 0 -130
-330 0 -331 0 3 128 3 127 88 3 87 3 0 462 -1 462 -221 -592 -221 -593 -111 0
-111 0 -227 593 -227 592 -1 -462 0 -463 95 0 95 0 0 -130 0 -130 -335 0 -335
0 0 130 0 130 85 0 85 0 0 545 0 545 -85 0 -85 0 0 130 0 130 303 0 302 0 215
-560z m1980 430 l0 -130 -75 0 -76 0 4 -442 c3 -486 3 -487 65 -559 54 -63
103 -83 197 -84 67 0 89 4 130 25 55 28 107 95 125 158 6 23 10 206 10 470 l0
432 -70 0 -70 0 0 130 0 130 310 0 310 0 0 -130 0 -130 -85 0 -85 0 0 -452 c0
-355 -3 -468 -15 -521 -41 -197 -199 -349 -408 -394 -86 -18 -277 -13 -348 10
-128 42 -251 139 -308 246 -61 115 -63 140 -68 649 l-5 462 -84 0 -84 0 0 130
0 130 315 0 315 0 0 -130z m2210 -125 l0 -255 -120 0 -119 0 -3 118 -3 117
-117 3 -118 3 0 -541 0 -540 90 0 90 0 0 -130 0 -130 -330 0 -330 0 0 130 0
130 85 0 85 0 0 540 0 540 -115 0 -115 0 0 -120 0 -120 -120 0 -120 0 0 255 0
255 630 0 630 0 0 -255z m740 125 l0 -130 -85 0 -85 0 0 -535 0 -535 190 0
189 0 3 103 3 102 153 3 152 3 0 -246 0 -245 -585 0 -585 0 0 130 0 130 85 0
85 0 0 545 0 545 -85 0 -85 0 0 130 0 130 325 0 325 0 0 -130z m1855 -545
l280 -675 88 0 87 0 0 -130 0 -130 -340 0 -340 0 0 115 0 115 86 0 c65 0 85 3
82 13 -3 6 -22 58 -44 115 l-39 102 -284 -2 -284 -3 -42 -110 -43 -110 84 -3
84 -3 0 -114 0 -115 -330 0 -331 0 3 128 3 127 86 3 85 3 232 542 231 542 -85
3 -84 3 0 129 0 130 268 0 268 0 279 -675z"/>
<path d="M8933 5554 c-19 -52 -181 -488 -188 -506 -7 -17 6 -18 194 -18 111 0
201 3 201 8 0 6 -141 397 -188 521 l-9 25 -10 -30z"/>
</g>
</svg>
