<?xml version="1.0" standalone="no"?>
<!DOCTYPE svg PUBLIC "-//W3C//DTD SVG 20010904//EN"
 "http://www.w3.org/TR/2001/REC-SVG-20010904/DTD/svg10.dtd">
<svg version="1.0" xmlns="http://www.w3.org/2000/svg"
 width="606.000000pt" height="606.000000pt" viewBox="0 0 606.000000 606.000000"
 preserveAspectRatio="xMidYMid meet">
<metadata>
Created by potrace 1.11, written by Peter Selinger 2001-2013
</metadata>
<g transform="translate(0.000000,606.000000) scale(0.100000,-0.100000)"
fill="#000000" stroke="none">
<path d="M2785 6044 c-418 -44 -758 -140 -1099 -311 -376 -188 -738 -474 -976
-772 -387 -483 -599 -976 -676 -1576 -23 -177 -23 -533 0 -710 88 -680 368
-1267 831 -1744 483 -497 1068 -793 1770 -898 152 -22 618 -25 765 -5 579 82
1087 295 1519 638 127 102 399 375 491 494 346 448 553 946 626 1507 21 155
24 540 6 688 -14 114 -70 420 -82 450 -5 11 -23 67 -40 125 -163 540 -526
1081 -959 1430 -456 368 -937 578 -1521 666 -101 15 -561 28 -655 18z"/>
</g>
</svg>
