<svg viewBox="0 0 487.34 471.63" xmlns="http://www.w3.org/2000/svg" xmlns:xlink="http://www.w3.org/1999/xlink"><clipPath id="a"><path d="m420 326.51a83.65 83.65 0 0 0 -51.6-32.46l-4.89-1.05-.78-.14a81.44 81.44 0 0 0 -24.25.83l-100.55-128.34a7.32 7.32 0 0 0 -10.28-1.25l-.56.45a8 8 0 0 0 -1.36 11.17l106.39 135.76 5-1.19a67.53 67.53 0 0 1 23.33-1.62l4.59 1 .24.05c34.79 6.63 58.74 39.22 54.52 74.18a64.26 64.26 0 0 1 -4.75 17.6l-36.18-46.16a31.61 31.61 0 0 0 -10.92-8.91 33 33 0 0 0 -47.42 37.06v.1a33.71 33.71 0 0 0 6.05 12.65l36.23 46.22a64.83 64.83 0 0 1 -18.24.39c-35-4.25-60.9-35.27-59-70.63l.1-5a68.49 68.49 0 0 1 7.12-22.22l2.3-4.55-141.57-180.68-5 1.17a67.94 67.94 0 0 1 -23.35 1.6l-4.59-1-.24-.05c-34.8-6.64-58.73-39.22-54.49-74.18a64.45 64.45 0 0 1 4.75-17.6l36.18 46.15a33.09 33.09 0 0 0 58.29-28.1 32.47 32.47 0 0 0 -6-12.79l-36.21-46.2a64.48 64.48 0 0 1 18.23-.41c35 4.24 60.88 35.27 59 70.64l-.12 5a67.36 67.36 0 0 1 -7.14 22.26l-2.35 4.56 20 25.55 12.59-9.88-13.79-17.59a80.92 80.92 0 0 0 6.6-23.35l.17-5.78a83.68 83.68 0 0 0 -19.15-57.93 82.39 82.39 0 0 0 -90.48-25.42l-10.71 3.58 50.77 64.78a16.83 16.83 0 0 1 3.05 6.6 17.25 17.25 0 0 1 -6 17.52 17.54 17.54 0 0 1 -24.13-3l-50.74-64.66-6.07 9.54a82.32 82.32 0 0 0 3.06 93.92 83.59 83.59 0 0 0 51.6 32.46l4.87 1.09.78.13a82.08 82.08 0 0 0 24.24-.81l129.17 164.83a82.47 82.47 0 0 0 -6.57 23.34l-.14 5.8a83.26 83.26 0 0 0 73 87.22 81 81 0 0 0 9.71.59 82.55 82.55 0 0 0 26.91-4.57l10.64-3.65-50.68-64.73a17.73 17.73 0 0 1 -3.12-6.63 17.12 17.12 0 0 1 18.71-21 16.93 16.93 0 0 1 5.78 1.92 16.19 16.19 0 0 1 5.61 4.46l50.84 64.85 6.07-9.53a82.32 82.32 0 0 0 -3.07-93.96z"/></clipPath><linearGradient id="b" gradientUnits="userSpaceOnUse" x1="7.85" x2="479.48" y1="235.82" y2="235.82"><stop offset="0" stop-color="#0f7235"/><stop offset="1" stop-color="#83cd3f"/></linearGradient><g clip-path="url(#a)"><path d="m7.85-7.85h471.63v487.34h-471.63z" fill="url(#b)" transform="matrix(0 -1 1 0 7.85 479.48)"/></g></svg>