<svg viewBox="0 0 512 504.5" xmlns="http://www.w3.org/2000/svg" xmlns:xlink="http://www.w3.org/1999/xlink"><clipPath id="a"><path d="m268.54 143.34a8.42 8.42 0 0 0 -8.52 8.29l-.61 41.91a8.41 8.41 0 1 0 16.81.25l.61-41.92a8.42 8.42 0 0 0 -8.29-8.53z"/></clipPath><linearGradient id="b" gradientTransform="translate(-1061.6 -526.68)" gradientUnits="userSpaceOnUse" x1="1065.35" x2="1569.85" y1="778.93" y2="778.93"><stop offset="0" stop-color="#0f7235"/><stop offset="1" stop-color="#83cd3f"/></linearGradient><linearGradient id="c" gradientTransform="translate(-1622.9 -35.48)" x1="1674.77" x2="2051.52" xlink:href="#b" y1="244.14" y2="244.14"/><clipPath id="d"><path d="m275.61 224.72c-.06-.27-.12-.56-.2-.83a6.09 6.09 0 0 0 -.26-.75 8 8 0 0 0 -.34-.77 7.74 7.74 0 0 0 -.43-.73 5.55 5.55 0 0 0 -.46-.64 6.45 6.45 0 0 0 -.55-.64 10.15 10.15 0 0 0 -1.26-1.06c-.22-.15-.46-.3-.71-.44a6.59 6.59 0 0 0 -.71-.34 7.62 7.62 0 0 0 -.8-.31c-.26-.08-.54-.15-.82-.21a6.19 6.19 0 0 0 -.79-.13c-.27 0-.55-.05-.82-.06s-.54 0-.81 0-.59.07-.8.11a8.08 8.08 0 0 0 -.85.2c-.22.06-.47.15-.78.27a6.62 6.62 0 0 0 -.73.33 8 8 0 0 0 -.7.41c-.25.16-.48.32-.71.5s-.41.35-.57.5a6.79 6.79 0 0 0 -.56.6c-.21.25-.37.46-.53.69a6 6 0 0 0 -.42.69c-.15.26-.27.52-.39.77s-.18.47-.27.74a5.77 5.77 0 0 0 -.21.79 6 6 0 0 0 -.14.85 6.84 6.84 0 0 0 -.06.81v.83s.06.55.11.79a7.27 7.27 0 0 0 .18.76c.1.34.19.61.29.87s.2.46.33.72a6.71 6.71 0 0 0 .4.69 8.24 8.24 0 0 0 .49.69 7 7 0 0 0 .53.61c.2.2.39.38.63.58a6.94 6.94 0 0 0 .65.5c.21.14.43.28.7.43s.5.26.77.38a6.74 6.74 0 0 0 .72.26 4.54 4.54 0 0 0 .77.21 6.89 6.89 0 0 0 .87.15 7.5 7.5 0 0 0 1.64 0c.29 0 .55-.07.79-.11a7.34 7.34 0 0 0 .8-.19 8.33 8.33 0 0 0 .8-.27c.25-.1.51-.21.76-.34s.49-.27.73-.42.43-.3.64-.46.41-.35.65-.57.36-.37.55-.59.33-.42.49-.65.31-.48.44-.72a6.24 6.24 0 0 0 .34-.69c.14-.32.23-.56.31-.8s.16-.56.22-.83a7.66 7.66 0 0 0 .13-.79 7 7 0 0 0 .05-.82 5.32 5.32 0 0 0 0-.82 6.18 6.18 0 0 0 -.1-.75z"/></clipPath><clipPath id="e"><path d="m347.34 105.92a114.16 114.16 0 0 0 -81.6-32.86 114.13 114.13 0 0 0 -81 34.46c-2 2-3.86 4.09-5.67 6.22a8.21 8.21 0 0 0 2.63 12.62 8.72 8.72 0 0 0 10.52-2.06c1.45-1.7 3-3.37 4.56-5a97.56 97.56 0 1 1 -18.78 27.11l-15.06-7.56a115 115 0 1 0 184.44-32.93z"/></clipPath><clipPath id="f"><path d="m476.86 13.59a25.45 25.45 0 0 0 -24.19 17.63h-54.67v21.78h-62.21a151.7 151.7 0 0 0 -210.56 189.09h-12.39l-43.94.08a22.17 22.17 0 1 0 0 14.92h63a152 152 0 0 0 28.85 39.1c.58.56 1.17 1.1 1.76 1.66v20.91h-39.51a25.41 25.41 0 1 0 -.17 15h54.7v-23.35a149.87 149.87 0 0 0 62.62 26.78l1.86.33.78 107.93a26.08 26.08 0 0 0 11.47 21.38 25.11 25.11 0 0 0 10 4.06 26.14 26.14 0 0 0 30.74-25.89l-.78-107.88 1.85-.35a149.87 149.87 0 0 0 63.89-29.16l-12-12a135 135 0 1 1 21.68-20.61 8.34 8.34 0 0 0 .44 11.3l.06.06a8.45 8.45 0 0 0 12.39-.46 151.49 151.49 0 0 0 14-176.29h26.75a25.41 25.41 0 1 0 .17-15h-35.25v.08h-2a148.72 148.72 0 0 0 -12.1-13.77 152.37 152.37 0 0 0 -11.75-10.62h50.65v-24.08h39.52a25.42 25.42 0 1 0 24.37-32.63zm-428.86 243.54a7.49 7.49 0 1 1 7.49-7.49 7.49 7.49 0 0 1 -7.49 7.49zm50.28 77.5a8.88 8.88 0 1 1 8.88-8.87 8.88 8.88 0 0 1 -8.86 8.87zm162.89 4.79c2.4.09 4.8.13 7.16.1 2.15 0 4.34-.09 6.68-.21l2.37-.13.77 105.92a9.29 9.29 0 0 1 -18.58.21l-.77-106zm186.83-245.7a8.88 8.88 0 1 1 -8.88 8.88 8.89 8.89 0 0 1 8.88-8.88zm29.19-45.62a8.88 8.88 0 1 1 8.87-8.88 8.88 8.88 0 0 1 -8.87 8.88z"/></clipPath><g clip-path="url(#a)"><path d="m3.75-3.75h504.5v512h-504.5z" fill="url(#b)" transform="matrix(0 -1 1 0 3.75 508.25)"/><path d="m51.87 20.29h376.75v376.75h-376.75z" fill="url(#c)" transform="matrix(.01448573 -.99989508 .99989508 .01448573 28.1 445.84)"/></g><g clip-path="url(#d)"><path d="m3.75-3.75h504.5v512h-504.5z" fill="url(#b)" transform="matrix(0 -1 1 0 3.75 508.25)"/><path d="m51.87 20.29h376.75v376.75h-376.75z" fill="url(#c)" transform="matrix(.01448573 -.99989508 .99989508 .01448573 28.1 445.84)"/></g><g clip-path="url(#e)"><path d="m3.75-3.75h504.5v512h-504.5z" fill="url(#b)" transform="matrix(0 -1 1 0 3.75 508.25)"/></g><path d="m278.17 445.1-.77-105.92-2.37.13c-2.34.12-4.53.19-6.68.21-2.36 0-4.76 0-7.16-.1l-2.37-.09.77 106a9.16 9.16 0 0 0 2.78 6.51 9.3 9.3 0 0 0 15.8-6.72z" fill="none"/><g clip-path="url(#f)"><path d="m3.75-3.75h504.5v512h-504.5z" fill="url(#b)" transform="matrix(0 -1 1 0 3.75 508.25)"/></g></svg>