<svg viewBox="0 0 495.27 484.67" xmlns="http://www.w3.org/2000/svg" xmlns:xlink="http://www.w3.org/1999/xlink"><linearGradient id="a" gradientTransform="matrix(.01483475 -.99988996 .99988996 .01483475 5231.7 5271.07)" gradientUnits="userSpaceOnUse" x1="4705.21" x2="5196.82" y1="-5057.71" y2="-5057.71"><stop offset="0" stop-color="#0f7235"/><stop offset="1" stop-color="#83cd3f"/></linearGradient><g fill="none"><path d="m256 387.59v38.51c94.49-4.16 170.76-79.64 176.16-173.81h-38.52c-5.3 72.95-64.35 131.22-137.64 135.3z"/><path d="m393.79 233.29h38.51c-4.24-95.29-81-172.02-176.3-176.21v38.5c74.09 4.13 133.63 63.64 137.79 137.71z"/><path d="m101.87 251.09h-38.54c4.78 93.91 79.98 169.46 173.67 174.91v-38.57a146.45 146.45 0 0 1 -135.13-136.34z"/><path d="m101.87 251.09h-38.54c4.78 93.91 79.98 169.46 173.67 174.91v-38.57a146.45 146.45 0 0 1 -135.13-136.34z"/><path d="m256 387.59v38.51c94.49-4.16 170.76-79.64 176.16-173.81h-38.52c-5.3 72.95-64.35 131.22-137.64 135.3z"/><path d="m256 57.08v38.5c74.08 4.13 133.62 63.64 137.78 137.71h38.52c-4.24-95.29-81-172.02-176.3-176.21z"/></g><path d="m451.31 233.29c-4.26-105.76-89.53-191-195.3-195.22v-37.79l-19.01-.28v38.17c-31.3 4.17-60.61 9.3-93.63 31.31l8.8 13.21c25.12-14 58.57-25.61 84.83-25.48v38.53a145.92 145.92 0 0 0 -95.71 45.74 8.91 8.91 0 0 0 1.57 13.52l.5.33a9.68 9.68 0 0 0 12.33-1.48 127 127 0 0 1 81.31-39.04v49.34a9.5 9.5 0 1 0 19 .11v-49.64a127.41 127.41 0 0 1 118.75 118.67h-33.86a9.37 9.37 0 0 0 -9.37 9.37v.1a9.53 9.53 0 0 0 9.53 9.53h33.53a127.44 127.44 0 0 1 -118.58 116.27v-37.56a9.5 9.5 0 1 0 -19-.17v37.56a127.45 127.45 0 0 1 -116.1-117.3h27a9.63 9.63 0 0 0 9.62-9.63v-.32a9 9 0 0 0 -9.05-9h-27.57a126.46 126.46 0 0 1 17.89-56.14l-15.88-10.42a145.25 145.25 0 0 0 -21 66.5h-38.58a184.43 184.43 0 0 1 65.15-131.38 9.91 9.91 0 0 0 1.86-13 9.17 9.17 0 0 0 -13.51-2 203.36 203.36 0 0 0 -72.51 146.39h-44.32v19h44.32c4.81 104.35 88.51 188.45 192.68 193.91v39.67h19v-39.56c105-4.19 189.76-88.17 195.2-192.82h44.06v-19zm-214.31 192.71c-93.7-5.42-168.9-81-173.68-174.88h38.54a146.45 146.45 0 0 0 135.14 136.31zm19 .13v-38.54c73.28-4.08 132.33-62.35 137.63-135.3h38.53c-5.39 94.17-81.66 169.65-176.16 173.81zm137.79-192.84c-4.16-74.07-63.7-133.58-137.79-137.71v-38.5c95.3 4.19 172.06 80.92 176.3 176.21z" fill="url(#a)"/></svg>