<svg viewBox="0 0 590 590" xmlns="http://www.w3.org/2000/svg" xmlns:xlink="http://www.w3.org/1999/xlink"><clipPath id="a"><path d="m278.5 50h16v16h-16z"/></clipPath><linearGradient id="b" gradientUnits="userSpaceOnUse" x1="4.5" x2="585.5" y1="295" y2="295"><stop offset="0" stop-color="#0f7235"/><stop offset="1" stop-color="#83cd3f"/></linearGradient><clipPath id="c"><path d="m86.5 162h16v16h-16z"/></clipPath><clipPath id="d"><path d="m470.5 162h16v16h-16z"/></clipPath><clipPath id="e"><path d="m499.36 343.89a224.78 224.78 0 0 0 0-139.77 40 40 0 0 0 -38.09-70.21 222.63 222.63 0 0 0 -135-80.41 40 40 0 0 0 -79.48 0 222.56 222.56 0 0 0 -135 80.4 39.64 39.64 0 0 0 -17.29-3.9 40 40 0 0 0 -20.86 74.12 224.78 224.78 0 0 0 0 139.77 40 40 0 0 0 38.09 70.2 222.7 222.7 0 0 0 135 80.4 40 40 0 0 0 79.48 0 222.68 222.68 0 0 0 135-80.4 39.64 39.64 0 0 0 17.29 3.91 40 40 0 0 0 20.86-74.11zm-4.86-69.89a206.19 206.19 0 0 1 -10.19 64.43 39.86 39.86 0 0 0 -36.45 13.9l-45.14-24.74a127.81 127.81 0 0 0 0-107.19l45.14-24.73a39.86 39.86 0 0 0 36.45 13.9 206.19 206.19 0 0 1 10.19 64.43zm-320 0a112 112 0 1 1 112 112 112.12 112.12 0 0 1 -112-112zm328-104a24 24 0 1 1 -24-24 24 24 0 0 1 24 24zm-216-136a24 24 0 1 1 -24 24 24 24 0 0 1 24-24zm-38.3 35.52a40.1 40.1 0 0 0 30.3 27.67v32.81h16v-32.81a40.09 40.09 0 0 0 30.3-27.68 206.66 206.66 0 0 1 123.71 74.07 39.92 39.92 0 0 0 -8.29 38l-45.12 24.75a127.91 127.91 0 0 0 -217.21 0l-45.12-24.73a39.9 39.9 0 0 0 -8.28-38.05 206.65 206.65 0 0 1 123.71-74.03zm-153.7 76.48a24 24 0 1 1 -24 24 24 24 0 0 1 24-24zm-16 128a206.34 206.34 0 0 1 10.19-64.43 39.87 39.87 0 0 0 36.45-13.89l45.13 24.74a127.84 127.84 0 0 0 0 107.18l-45.15 24.71a39.87 39.87 0 0 0 -36.44-13.88 206.39 206.39 0 0 1 -10.18-64.43zm-8 104a24 24 0 1 1 24 24 24 24 0 0 1 -24-24zm216 136a24 24 0 1 1 24-24 24 24 0 0 1 -24 24zm38.3-35.52a40.16 40.16 0 0 0 -30.3-27.68v-32.8h-16v32.8a40.13 40.13 0 0 0 -30.3 27.68 206.76 206.76 0 0 1 -123.71-74.05 39.93 39.93 0 0 0 8.28-38.07l45.13-24.7a127.91 127.91 0 0 0 217.21 0l45.11 24.73a39.92 39.92 0 0 0 8.29 38 206.71 206.71 0 0 1 -123.71 74.09zm153.7-76.48a24 24 0 1 1 24-24 24 24 0 0 1 -24 24z"/></clipPath><linearGradient id="f" x1="4.5" x2="585.5" xlink:href="#b" y1="295" y2="295"/><clipPath id="g"><path d="m470.5 370h16v16h-16z"/></clipPath><clipPath id="h"><path d="m278.5 482h16v16h-16z"/></clipPath><clipPath id="i"><path d="m86.5 370h16v16h-16z"/></clipPath><clipPath id="j"><path d="m340.35 290.54c0-9.18-3.12-15.21-9.25-17.91l-18.45-9.52-6.42-8.57a19.73 19.73 0 0 0 8-15.8v-31.92a19.75 19.75 0 0 0 -19.73-19.73h-14.14a19.75 19.75 0 0 0 -19.73 19.73v31.92a19.73 19.73 0 0 0 8.05 15.8l-6.35 8.46-17.74 8.41a19.65 19.65 0 0 0 -12.34 18.29l-.25 57.45h109zm-60-92.37h14.19a8.65 8.65 0 0 1 8.64 8.65v8.64h-8.64a8.65 8.65 0 0 1 -8.65-8.64h-11.07a19.75 19.75 0 0 0 19.73 19.73h8.64v12.19a8.65 8.65 0 0 1 -8.64 8.65h-14.19a8.66 8.66 0 0 1 -8.65-8.65v-31.92a8.66 8.66 0 0 1 8.65-8.65zm0 60.3h14.19.74l5.5 7.32-13.34 8.89-13.33-8.89 5.49-7.32c.25-.02.5 0 .76 0zm10.17 27.65 18.57-12.38 17.18 8.87.11.05c3.15 1.38 3.15 5 3.15 8.4l-.15 45h-86v-46.34a8.69 8.69 0 0 1 5.62-8.12l16.74-7.93 18.67 12.45a5.51 5.51 0 0 0 6.12 0z"/></clipPath><linearGradient id="k" x1="190.52" x2="368.87" xlink:href="#b" y1="266.44" y2="266.44"/><g clip-path="url(#a)"><path d="m4.5 0h581v590h-581z" fill="url(#b)"/></g><g clip-path="url(#c)"><path d="m4.5 0h581v590h-581z" fill="url(#b)"/></g><g clip-path="url(#d)"><path d="m4.5 0h581v590h-581z" fill="url(#b)"/></g><g clip-path="url(#e)"><path d="m4.5 0h581v590h-581z" fill="url(#f)" transform="matrix(0 -1 1 0 0 590)"/></g><g clip-path="url(#g)"><path d="m4.5 0h581v590h-581z" fill="url(#b)"/></g><g clip-path="url(#h)"><path d="m4.5 0h581v590h-581z" fill="url(#b)"/></g><g clip-path="url(#i)"><path d="m4.5 0h581v590h-581z" fill="url(#b)"/></g><g clip-path="url(#j)"><path d="m190.52 160.52h178.35v211.82h-178.35z" fill="url(#k)" transform="matrix(0 -1 1 0 13.26 546.13)"/></g></svg>