<svg viewBox="0 0 586.57 542.97" xmlns="http://www.w3.org/2000/svg" xmlns:xlink="http://www.w3.org/1999/xlink"><clipPath id="a"><path d="m161.73 210.09h.27a7 7 0 0 0 6.18-4.18l25.2-57.41a7 7 0 0 0 -12.82-5.63l-19.33 44-11.45-22a7 7 0 0 0 -12.43 6.46l18.21 35a7 7 0 0 0 6.17 3.76z"/></clipPath><linearGradient id="b" gradientUnits="userSpaceOnUse" x1="21.8" x2="564.77" y1="271.49" y2="271.49"><stop offset="0" stop-color="#0f7235"/><stop offset="1" stop-color="#83cd3f"/></linearGradient><clipPath id="c"><path d="m221.94 167.38h126.06a7 7 0 0 0 0-14h-126a7 7 0 0 0 0 14z"/></clipPath><clipPath id="d"><path d="m221.94 195.39h78.41a7 7 0 1 0 0-14h-78.41a7 7 0 1 0 0 14z"/></clipPath><clipPath id="e"><path d="m137.31 252.18 18.21 35a7 7 0 0 0 6.21 3.77h.27a7 7 0 0 0 6.18-4.18l25.2-57.41a7 7 0 1 0 -12.82-5.63l-19.33 44-11.45-22a7 7 0 0 0 -12.43 6.46z"/></clipPath><clipPath id="f"><path d="m221.94 248.25h126.06a7 7 0 0 0 0-14h-126a7 7 0 0 0 0 14z"/></clipPath><clipPath id="g"><path d="m221.94 276.25h78.41a7 7 0 0 0 0-14h-78.41a7 7 0 0 0 0 14z"/></clipPath><clipPath id="h"><path d="m221.94 329.11h126.06a7 7 0 0 0 0-14h-126a7 7 0 1 0 0 14z"/></clipPath><clipPath id="i"><path d="m221.94 357.11h78.41a7 7 0 0 0 0-14h-78.41a7 7 0 1 0 0 14z"/></clipPath><clipPath id="j"><path d="m412.92 174.38v263.32a23.36 23.36 0 0 1 -23.36 23.36h-294.94a23.36 23.36 0 0 1 -23.36-23.36v-364.93a23.36 23.36 0 0 1 23.36-23.36h50.85v23.34h-43.87a7 7 0 0 0 -7 7v229.42h14v-222.42h36.87a29.85 29.85 0 0 0 29.86 29.85h133.52a29.84 29.84 0 0 0 29.85-29.83h36.87v279.91h-50a7 7 0 0 0 -7 7v50h-209.97v-77.01a6.66 6.66 0 0 0 -6.6-6.67 7.35 7.35 0 0 0 -7.35 7.35v83.36a7 7 0 0 0 7 7h223.89a7 7 0 0 0 4.95-2.05l57-57a7 7 0 0 0 2.05-4.95v-293.96a7 7 0 0 0 -7-7h-43.83v-23.34h50.85a23.36 23.36 0 0 1 23.36 23.36v68.23a7 7 0 0 0 7 7 7 7 0 0 0 7-7v-68.23a37.36 37.36 0 0 0 -37.36-37.36h-50.86v-1.92a29.86 29.86 0 0 0 -29.86-29.86h-133.51a29.86 29.86 0 0 0 -29.86 29.86v1.92h-50.85a37.36 37.36 0 0 0 -37.36 37.36v364.93a37.35 37.35 0 0 0 37.36 37.36h294.94a37.36 37.36 0 0 0 37.36-37.36v-263.32zm-80.38 239.44v-33.14h33.13zm-173.06-380.33a15.86 15.86 0 0 1 15.86-15.86h133.5a15.86 15.86 0 0 1 15.86 15.86v1.92h-165.22zm0 15.92h165.22v23.34h-165.22zm0 37.34h165.22a15.85 15.85 0 0 1 -15.85 15.85h-133.52a15.85 15.85 0 0 1 -15.85-15.85z"/></clipPath><g clip-path="url(#a)"><path d="m21.8-21.8h542.97v586.57h-542.97z" fill="url(#b)" transform="matrix(0 -1 1 0 21.8 564.77)"/></g><g clip-path="url(#c)"><path d="m21.8-21.8h542.97v586.57h-542.97z" fill="url(#b)" transform="matrix(0 -1 1 0 21.8 564.77)"/></g><g clip-path="url(#d)"><path d="m21.8-21.8h542.97v586.57h-542.97z" fill="url(#b)" transform="matrix(0 -1 1 0 21.8 564.77)"/></g><g clip-path="url(#e)"><path d="m21.8-21.8h542.97v586.57h-542.97z" fill="url(#b)" transform="matrix(0 -1 1 0 21.8 564.77)"/></g><g clip-path="url(#f)"><path d="m21.8-21.8h542.97v586.57h-542.97z" fill="url(#b)" transform="matrix(0 -1 1 0 21.8 564.77)"/></g><g clip-path="url(#g)"><path d="m21.8-21.8h542.97v586.57h-542.97z" fill="url(#b)" transform="matrix(0 -1 1 0 21.8 564.77)"/></g><g clip-path="url(#h)"><path d="m21.8-21.8h542.97v586.57h-542.97z" fill="url(#b)" transform="matrix(0 -1 1 0 21.8 564.77)"/></g><g clip-path="url(#i)"><path d="m21.8-21.8h542.97v586.57h-542.97z" fill="url(#b)" transform="matrix(0 -1 1 0 21.8 564.77)"/></g><g clip-path="url(#j)"><path d="m21.8-21.8h542.97v586.57h-542.97z" fill="url(#b)" transform="matrix(0 -1 1 0 21.8 564.77)"/></g></svg>